<svg width="63" height="63" viewBox="0 0 63 63" fill="none" xmlns="http://www.w3.org/2000/svg">
<path d="M18.72 0.26001C8.54215 0.26001 0.260002 8.54216 0.260002 18.72V44.28C0.260002 54.4579 8.54215 62.74 18.72 62.74H44.28C54.4579 62.74 62.74 54.4579 62.74 44.28V18.72C62.74 8.54216 54.4579 0.26001 44.28 0.26001H18.72ZM18.72 3.10001H44.28C52.9228 3.10001 59.9 10.0772 59.9 18.72V44.28C59.9 52.9228 52.9228 59.9 44.28 59.9H18.72C10.0772 59.9 3.1 52.9228 3.1 44.28V18.72C3.1 10.0772 10.0772 3.10001 18.72 3.10001ZM48.54 11.62C47.7868 11.62 47.0644 11.9192 46.5318 12.4518C45.9992 12.9844 45.7 13.7068 45.7 14.46C45.7 15.2132 45.9992 15.9356 46.5318 16.4682C47.0644 17.0008 47.7868 17.3 48.54 17.3C49.2932 17.3 50.0156 17.0008 50.5482 16.4682C51.0808 15.9356 51.38 15.2132 51.38 14.46C51.38 13.7068 51.0808 12.9844 50.5482 12.4518C50.0156 11.9192 49.2932 11.62 48.54 11.62ZM31.5 15.88C22.8901 15.88 15.88 22.8901 15.88 31.5C15.88 40.1099 22.8901 47.12 31.5 47.12C40.1099 47.12 47.12 40.1099 47.12 31.5C47.12 22.8901 40.1099 15.88 31.5 15.88ZM31.5 18.72C38.575 18.72 44.28 24.425 44.28 31.5C44.28 38.575 38.575 44.28 31.5 44.28C24.425 44.28 18.72 38.575 18.72 31.5C18.72 24.425 24.425 18.72 31.5 18.72Z" fill="black"/>
<path fill-rule="evenodd" clip-rule="evenodd" d="M18.72 3.09998H44.28C52.9228 3.09998 59.9 10.0771 59.9 18.72V44.28C59.9 52.9228 52.9228 59.9 44.28 59.9H18.72C10.0772 59.9 3.1 52.9228 3.1 44.28V18.72C3.1 10.0771 10.0772 3.09998 18.72 3.09998ZM46.5318 12.4518C47.0644 11.9192 47.7868 11.62 48.54 11.62C49.2932 11.62 50.0156 11.9192 50.5482 12.4518C51.0808 12.9844 51.38 13.7067 51.38 14.46C51.38 15.2132 51.0808 15.9356 50.5482 16.4681C50.0156 17.0008 49.2932 17.3 48.54 17.3C47.7868 17.3 47.0644 17.0008 46.5318 16.4681C45.9992 15.9356 45.7 15.2132 45.7 14.46C45.7 13.7067 45.9992 12.9844 46.5318 12.4518ZM15.88 31.5C15.88 22.8901 22.8901 15.88 31.5 15.88C40.1099 15.88 47.12 22.8901 47.12 31.5C47.12 40.1099 40.1099 47.12 31.5 47.12C22.8901 47.12 15.88 40.1099 15.88 31.5Z" fill="white"/>
<path d="M31.5 18.72C38.575 18.72 44.28 24.425 44.28 31.5C44.28 38.575 38.575 44.28 31.5 44.28C24.425 44.28 18.72 38.575 18.72 31.5C18.72 24.425 24.425 18.72 31.5 18.72Z" fill="white"/>
</svg>
