<svg width="100" height="100" viewBox="0 0 100 100" fill="none" xmlns="http://www.w3.org/2000/svg">
<path d="M32 6C17.665 6 6 17.665 6 32V68C6 82.335 17.665 94 32 94H68C82.335 94 94 82.335 94 68V32C94 17.665 82.335 6 68 6H32ZM32 10H68C80.173 10 90 19.827 90 32V68C90 80.173 80.173 90 68 90H32C19.827 90 10 80.173 10 68V32C10 19.827 19.827 10 32 10ZM74 22C72.9391 22 71.9217 22.4214 71.1716 23.1716C70.4214 23.9217 70 24.9391 70 26C70 27.0609 70.4214 28.0783 71.1716 28.8284C71.9217 29.5786 72.9391 30 74 30C75.0609 30 76.0783 29.5786 76.8284 28.8284C77.5786 28.0783 78 27.0609 78 26C78 24.9391 77.5786 23.9217 76.8284 23.1716C76.0783 22.4214 75.0609 22 74 22ZM50 28C37.8734 28 28 37.8734 28 50C28 62.1266 37.8734 72 50 72C62.1266 72 72 62.1266 72 50C72 37.8734 62.1266 28 50 28ZM50 32C59.9648 32 68 40.0352 68 50C68 59.9648 59.9648 68 50 68C40.0352 68 32 59.9648 32 50C32 40.0352 40.0352 32 50 32Z" fill="black"/>
<path fill-rule="evenodd" clip-rule="evenodd" d="M32 10H68C80.173 10 90 19.827 90 32V68C90 80.173 80.173 90 68 90H32C19.827 90 10 80.173 10 68V32C10 19.827 19.827 10 32 10ZM71.1716 23.1716C71.9217 22.4214 72.9391 22 74 22C75.0609 22 76.0783 22.4214 76.8284 23.1716C77.5786 23.9217 78 24.9391 78 26C78 27.0609 77.5786 28.0783 76.8284 28.8284C76.0783 29.5786 75.0609 30 74 30C72.9391 30 71.9217 29.5786 71.1716 28.8284C70.4214 28.0783 70 27.0609 70 26C70 24.9391 70.4214 23.9217 71.1716 23.1716ZM28 50C28 37.8734 37.8734 28 50 28C62.1266 28 72 37.8734 72 50C72 62.1266 62.1266 72 50 72C37.8734 72 28 62.1266 28 50Z" fill="white"/>
<path d="M50 32C59.9648 32 68 40.0352 68 50C68 59.9648 59.9648 68 50 68C40.0352 68 32 59.9648 32 50C32 40.0352 40.0352 32 50 32Z" fill="white"/>
</svg>
