<svg width="100" height="100" viewBox="0 0 100 100" fill="none" xmlns="http://www.w3.org/2000/svg">
<path d="M18 8C12.501 8 8 12.501 8 18V82C8 87.499 12.501 92 18 92H51.6641C51.88 92.0357 52.1004 92.0357 52.3164 92H63.6641C63.88 92.0357 64.1004 92.0357 64.3164 92H82C87.499 92 92 87.499 92 82V18C92 12.501 87.499 8 82 8H18ZM18 12H82C85.337 12 88 14.663 88 18V82C88 85.337 85.337 88 82 88H66V60H73.6406L76.4414 46H66V42C66 40.885 66.1061 40.7979 66.4805 40.5547C66.8548 40.3115 68.0116 40 70 40H76V28.7383L74.8594 28.1953C74.8594 28.1953 70.2653 26 64 26C59.5 26 55.8032 27.7929 53.4375 30.75C51.0718 33.7071 50 37.6667 50 42V46H44V60H50V88H18C14.663 88 12 85.337 12 82V18C12 14.663 14.663 12 18 12ZM64 30C68.1581 30 70.7747 30.9169 72 31.4023V36H70C67.6984 36 65.8539 36.1904 64.3008 37.1992C62.7477 38.208 62 40.123 62 42V50H71.5586L70.3594 56H62V88H54V56H48V50H54V42C54 38.3333 54.9282 35.2929 56.5625 33.25C58.1968 31.2071 60.5 30 64 30Z" fill="black"/>
<path d="M18 12H82C85.337 12 88 14.663 88 18V82C88 85.337 85.337 88 82 88H66V60H73.6406L76.4414 46H66V42C66 40.885 66.1061 40.7979 66.4805 40.5547C66.8548 40.3115 68.0116 40 70 40H76V28.7383L74.8594 28.1953C74.8594 28.1953 70.2653 26 64 26C59.5 26 55.8032 27.7929 53.4375 30.75C51.0718 33.7071 50 37.6667 50 42V46H44V60H50V88H18C14.663 88 12 85.337 12 82V18C12 14.663 14.663 12 18 12Z" fill="white"/>
<path d="M64 30C68.1581 30 70.7747 30.9169 72 31.4023V36H70C67.6984 36 65.8539 36.1904 64.3008 37.1992C62.7477 38.208 62 40.123 62 42V50H71.5586L70.3594 56H62V88H54V56H48V50H54V42C54 38.3333 54.9282 35.2929 56.5625 33.25C58.1968 31.2071 60.5 30 64 30Z" fill="black"/>
</svg>
