<svg width="32" height="32" viewBox="0 0 32 32" fill="none" xmlns="http://www.w3.org/2000/svg">
<path d="M26.0703 3.99607C25.7344 4.0117 25.418 4.10935 25.1367 4.21873H25.1328C24.8477 4.33201 23.4922 4.90232 21.4336 5.7656C19.375 6.63279 16.7031 7.75779 14.0508 8.87498C8.75391 11.1054 3.54688 13.3008 3.54688 13.3008L3.60938 13.2773C3.60938 13.2773 3.25 13.3945 2.875 13.6523C2.6836 13.7773 2.47266 13.9492 2.28906 14.2187C2.10547 14.4883 1.95703 14.9023 2.01172 15.3281C2.10156 16.0508 2.57031 16.4844 2.90625 16.7226C3.2461 16.9648 3.57031 17.0781 3.57031 17.0781H3.57813L8.46094 18.7226C8.67969 19.4258 9.94922 23.5976 10.2539 24.5586C10.4336 25.1328 10.6094 25.4922 10.8281 25.7656C10.9336 25.9062 11.0586 26.0234 11.207 26.1172C11.2656 26.1523 11.3281 26.1797 11.3906 26.2031C11.4102 26.2148 11.4297 26.2187 11.4531 26.2226L11.4023 26.2109C11.418 26.2148 11.4297 26.2265 11.4414 26.2304C11.4805 26.2422 11.5078 26.2461 11.5586 26.2539C12.332 26.4883 12.9531 26.0078 12.9531 26.0078L12.9883 25.9804L15.8711 23.3554L20.7031 27.0625L20.8125 27.1094C21.8203 27.5508 22.8398 27.3047 23.3789 26.8711C23.9219 26.4336 24.1328 25.875 24.1328 25.875L24.168 25.7851L27.9023 6.65623C28.0078 6.18357 28.0352 5.74217 27.918 5.31248C27.8008 4.88279 27.5 4.48045 27.1367 4.2656C26.7695 4.04685 26.4063 3.98045 26.0703 3.99607ZM25.9688 6.04685C25.9648 6.10935 25.9766 6.10154 25.9492 6.22263V6.23435L22.25 25.164C22.2344 25.1914 22.207 25.25 22.1328 25.3086C22.0547 25.3711 21.9922 25.4101 21.668 25.2812L15.7578 20.75L12.1875 24.0039L12.9375 19.2148C12.9375 19.2148 22.1953 10.5859 22.5938 10.2148C22.9922 9.84373 22.8594 9.7656 22.8594 9.7656C22.8867 9.31248 22.2578 9.63279 22.2578 9.63279L10.082 17.1758L10.0781 17.1562L4.24219 15.1914V15.1875C4.23828 15.1875 4.23047 15.1836 4.22656 15.1836C4.23047 15.1836 4.25781 15.1719 4.25781 15.1719L4.28906 15.1562L4.32031 15.1445C4.32031 15.1445 9.53125 12.9492 14.8281 10.7187C17.4805 9.60154 20.1523 8.47654 22.207 7.60935C24.2617 6.74607 25.7813 6.11326 25.8672 6.0781C25.9492 6.04685 25.9102 6.04685 25.9688 6.04685Z" fill="black"/>
<path d="M25.9688 6.04685C25.9648 6.10935 25.9766 6.10154 25.9492 6.22263V6.23435L22.25 25.164C22.2344 25.1914 22.207 25.25 22.1328 25.3086C22.0547 25.3711 21.9922 25.4101 21.668 25.2812L15.7578 20.75L12.1875 24.0039L12.9375 19.2148C12.9375 19.2148 22.1953 10.5859 22.5938 10.2148C22.9922 9.84373 22.8594 9.7656 22.8594 9.7656C22.8867 9.31248 22.2578 9.63279 22.2578 9.63279L10.082 17.1758L10.0781 17.1562L4.24219 15.1914V15.1875C4.23828 15.1875 4.23047 15.1836 4.22656 15.1836C4.23047 15.1836 4.25781 15.1719 4.25781 15.1719L4.28906 15.1562L4.32031 15.1445C4.32031 15.1445 9.53125 12.9492 14.8281 10.7187C17.4805 9.60154 20.1523 8.47654 22.207 7.60935C24.2617 6.74607 25.7813 6.11326 25.8672 6.0781C25.9492 6.04685 25.9102 6.04685 25.9688 6.04685Z" fill="white"/>
</svg>
