<svg width="56" height="56" viewBox="0 0 56 56" fill="none" xmlns="http://www.w3.org/2000/svg">
<g clip-path="url(#clip0_3_29)">
<path d="M0 26.88C0 14.2086 0 7.87297 3.93648 3.93648C7.87297 0 14.2086 0 26.88 0H29.12C41.7914 0 48.127 0 52.0635 3.93648C56 7.87297 56 14.2086 56 26.88V29.12C56 41.7914 56 48.127 52.0635 52.0635C48.127 56 41.7914 56 29.12 56H26.88C14.2086 56 7.87297 56 3.93648 52.0635C0 48.127 0 41.7914 0 29.12V26.88Z" fill="white"/>
<path d="M28.7692 39.9178C16.446 39.9178 9.41713 31.4696 9.12425 17.4116H15.2971C15.4999 27.7298 20.0506 32.1004 23.6552 33.0015V17.4116H29.4678V26.3105C33.0274 25.9275 36.7667 21.8723 38.0283 17.4116H43.8408C42.8721 22.9086 38.8169 26.9638 35.9332 28.6309C38.8169 29.9827 43.4355 33.5197 45.1928 39.9178H38.7944C37.4201 35.6374 33.9961 32.3256 29.4678 31.8751V39.9178H28.7692Z" fill="#030303"/>
</g>
<defs>
<clipPath id="clip0_3_29">
<rect width="56" height="56" fill="white"/>
</clipPath>
</defs>
</svg>
